<svg width="1920" height="1080" viewBox="0 0 1920 1080" fill="none" xmlns="http://www.w3.org/2000/svg">
<rect width="1920" height="1080" fill="#1E1D27"/>
<rect x="880" y="320" width="720" height="520" rx="20" fill="#272633"/>
<rect x="921" y="445" width="78" height="34" rx="9" fill="#131219" stroke="#272633" stroke-width="2"/>
<text fill="white" xml:space="preserve" style="white-space: pre" font-family="Roboto Mono" font-size="14" font-weight="bold" letter-spacing="0em"><tspan x="934.775" y="467.438">&#x417;&#x430;&#x43a;&#x440;&#x44b;&#x442;</tspan></text>
<rect x="1125" y="541" width="78" height="34" rx="9" fill="#131219" stroke="#272633" stroke-width="2"/>
<text fill="white" xml:space="preserve" style="white-space: pre" font-family="Roboto Mono" font-size="14" font-weight="bold" letter-spacing="0em"><tspan x="1138.77" y="563.438">&#x41e;&#x442;&#x43a;&#x440;&#x44b;&#x442;</tspan></text>
<rect x="1281" y="445" width="78" height="34" rx="9" fill="#131219" stroke="#272633" stroke-width="2"/>
<text fill="white" xml:space="preserve" style="white-space: pre" font-family="Roboto Mono" font-size="14" font-weight="bold" letter-spacing="0em"><tspan x="1290.57" y="467.438">1,2 bar</tspan></text>
<rect x="921" y="765" width="78" height="34" rx="9" fill="#131219" stroke="#272633" stroke-width="2"/>
<text fill="white" xml:space="preserve" style="white-space: pre" font-family="Roboto Mono" font-size="14" font-weight="bold" letter-spacing="0em"><tspan x="934.775" y="787.438">&#x417;&#x430;&#x43a;&#x440;&#x44b;&#x442;</tspan></text>
<rect x="1161" y="765" width="78" height="34" rx="9" fill="#131219" stroke="#272633" stroke-width="2"/>
<text fill="white" xml:space="preserve" style="white-space: pre" font-family="Roboto Mono" font-size="14" font-weight="bold" letter-spacing="0em"><tspan x="1178.98" y="787.438">60 &#x412;&#x442;</tspan></text>
<rect x="1281" y="765" width="78" height="34" rx="9" fill="#131219" stroke="#272633" stroke-width="2"/>
<text fill="white" xml:space="preserve" style="white-space: pre" font-family="Roboto Mono" font-size="14" font-weight="bold" letter-spacing="0em"><tspan x="1290.57" y="787.438">2,2 bar</tspan></text>
<text fill="#848299" xml:space="preserve" style="white-space: pre" font-family="Inter" font-size="20" font-weight="600" letter-spacing="0em"><tspan x="880" y="300.273">&#x41a;&#x43e;&#x43d;&#x442;&#x443;&#x440; &#x432;&#x430;&#x43a;&#x443;&#x443;&#x43c;&#x43d;&#x43e;&#x433;&#x43e; &#x43a;&#x43e;&#x43b;&#x43b;&#x435;&#x43a;&#x442;&#x43e;&#x440;&#x430;</tspan></text>
<text transform="translate(360 80)" fill="#848299" xml:space="preserve" style="white-space: pre" font-family="Inter" font-size="20" font-weight="600" letter-spacing="0em"><tspan x="0" y="20.2727">&#x41a;&#x43e;&#x43d;&#x442;&#x443;&#x440; &#x433;&#x43b;&#x430;&#x432;&#x43d;&#x43e;&#x433;&#x43e; </tspan><tspan x="0" y="46.2727">&#x442;&#x435;&#x43f;&#x43b;&#x43e;&#x43e;&#x431;&#x43c;&#x435;&#x43d;&#x43d;&#x438;&#x43a;&#x430;</tspan></text>
<path d="M360 170V990C360 995.523 364.477 1000 370 1000H630C635.523 1000 640 995.523 640 990V170C640 164.477 635.523 160 630 160H370C364.477 160 360 164.477 360 170Z" stroke="#2E5E0E" stroke-width="4"/>
<path d="M1080 400H690C684.477 400 680 404.477 680 410V440V710C680 715.523 684.477 720 690 720H1080M1080 400H1470C1475.52 400 1480 404.477 1480 410V710C1480 715.523 1475.52 720 1470 720H1080M1080 400V720" stroke="#0E505E" stroke-width="4"/>
<rect id="g-rct_1_value" x="281" y="321" width="158" height="158" rx="14" fill="#2F2D40" stroke="#1E1D27" stroke-width="2"/>
<text fill="white" xml:space="preserve" style="white-space: pre" font-family="Inter" font-size="22" font-weight="600" letter-spacing="0em"><tspan x="315.039" y="394.5">&#x420;&#x435;&#x430;&#x43a;&#x442;&#x43e;&#x440;&#x2028;</tspan><tspan x="338.167" y="421.5">No.1</tspan></text>
<circle id="g-rct_1_ind" cx="423" cy="337" r="6" fill="#73FF19" stroke="black" stroke-width="2"/>
<rect x="405" y="541" width="78" height="34" rx="9" fill="#13121A" stroke="#1D1C26" stroke-width="2"/>
<text fill="white" xml:space="preserve" style="white-space: pre" font-family="Roboto Mono" font-size="14" font-weight="bold" letter-spacing="0em"><tspan id="g-thrm_1_value" x="427.183" y="563.438">60&#xb0;C</tspan></text>
<rect x="445" y="381" width="78" height="34" rx="9" fill="#13121A" stroke="#1D1C26" stroke-width="2"/>
<text fill="white" xml:space="preserve" style="white-space: pre" font-family="Roboto Mono" font-size="14" font-weight="bold" letter-spacing="0em"><tspan x="467.184" y="403.438">100%</tspan></text>
<rect x="405" y="221" width="78" height="34" rx="9" fill="#13121A" stroke="#1D1C26" stroke-width="2"/>
<text id="g-thrm_2_value" fill="white" xml:space="preserve" style="white-space: pre" font-family="Roboto Mono" font-size="14" font-weight="bold" letter-spacing="0em"><tspan x="427.183" y="243.438">40&#xb0;C</tspan></text>
<rect x="405" y="661" width="78" height="34" rx="9" fill="#13121A" stroke="#1D1C26" stroke-width="2"/>
<text fill="white" xml:space="preserve" style="white-space: pre" font-family="Roboto Mono" font-size="14" font-weight="bold" letter-spacing="0em"><tspan id="g-heat_el_2_value"  x="427.183" y="683.438">65&#xb0;C</tspan></text>
<rect x="405" y="781" width="78" height="34" rx="9" fill="#13121A" stroke="#1D1C26" stroke-width="2"/>
<text fill="white" xml:space="preserve" style="white-space: pre" font-family="Roboto Mono" font-size="14" font-weight="bold" letter-spacing="0em"><tspan id="g-pump_1_value" x="422.979" y="803.438">60 &#x412;&#x442;</tspan></text>
<rect x="405" y="901" width="78" height="34" rx="9" fill="#13121A" stroke="#1D1C26" stroke-width="2"/>
<text fill="white" xml:space="preserve" style="white-space: pre" font-family="Roboto Mono" font-size="14" font-weight="bold" letter-spacing="0em"><tspan id="g-pres_1_value" x="414.571" y="923.438">1,3 bar</tspan></text>
<rect x="685" y="781" width="78" height="34" rx="9" fill="#13121A" stroke="#1D1C26" stroke-width="2"/>
<text fill="white" xml:space="preserve" style="white-space: pre" font-family="Roboto Mono" font-size="14" font-weight="bold" letter-spacing="0em"><tspan x="707.183" y="803.438">70&#xb0;C</tspan></text>
<rect x="685" y="901" width="78" height="34" rx="9" fill="#13121A" stroke="#1D1C26" stroke-width="2"/>
<text fill="white" xml:space="preserve" style="white-space: pre" font-family="Roboto Mono" font-size="14" font-weight="bold" letter-spacing="0em"><tspan x="694.571" y="923.438">2,1 bar</tspan></text>
<rect x="761" y="445" width="78" height="34" rx="9" fill="#13121A" stroke="#1D1C26" stroke-width="2"/>
<text fill="white" xml:space="preserve" style="white-space: pre" font-family="Roboto Mono" font-size="14" font-weight="bold" letter-spacing="0em"><tspan x="770.571" y="467.438">801,321</tspan></text>
<rect x="321" y="521" width="78" height="78" rx="14" fill="#2F2D40" stroke="#1D1C26" stroke-width="2"/>
<path fill-rule="evenodd" clip-rule="evenodd" d="M355.005 535.994C355.005 533.236 357.242 531 360 531C362.758 531 364.994 533.236 364.994 535.994V572.656C364.994 572.982 365.156 573.284 365.41 573.487C367.413 575.079 368.7 577.538 368.7 580.3C368.7 585.105 364.805 589 360 589C355.195 589 351.3 585.105 351.3 580.3C351.3 577.538 352.587 575.079 354.589 573.487C354.844 573.284 355.005 572.982 355.005 572.656V535.994ZM356.627 574.713C356.956 574.514 357.18 574.169 357.18 573.785V535.994C357.18 534.437 358.443 533.175 360 533.175C361.557 533.175 362.819 534.437 362.819 535.994V537.975C362.819 538.527 362.372 538.975 361.819 538.975H361C360.448 538.975 360 539.423 360 539.975V540.15C360 540.702 360.448 541.15 361 541.15H361.819C362.372 541.15 362.819 541.598 362.819 542.15V543.775C362.819 544.327 362.372 544.775 361.819 544.775H361C360.448 544.775 360 545.223 360 545.775V545.95C360 546.502 360.448 546.95 361 546.95H361.819C362.372 546.95 362.819 547.398 362.819 547.95V549.575C362.819 550.127 362.372 550.575 361.819 550.575H361C360.448 550.575 360 551.023 360 551.575V551.75C360 552.302 360.448 552.75 361 552.75H361.819C362.372 552.75 362.819 553.198 362.819 553.75V555.375C362.819 555.927 362.372 556.375 361.819 556.375H361C360.448 556.375 360 556.823 360 557.375V557.55C360 558.102 360.448 558.55 361 558.55H361.819C362.372 558.55 362.819 558.998 362.819 559.55V561.175C362.819 561.727 362.372 562.175 361.819 562.175H361C360.448 562.175 360 562.623 360 563.175V563.35C360 563.902 360.448 564.35 361 564.35H361.819C362.372 564.35 362.819 564.798 362.819 565.35V566.975C362.819 567.527 362.372 567.975 361.819 567.975H361C360.448 567.975 360 568.423 360 568.975V569.15C360 569.702 360.448 570.15 361 570.15H361.819C362.372 570.15 362.819 570.598 362.819 571.15V573.785C362.819 574.169 363.044 574.514 363.373 574.713C365.262 575.856 366.525 577.931 366.525 580.3C366.525 583.904 363.604 586.825 360 586.825C356.396 586.825 353.475 583.904 353.475 580.3C353.475 577.931 354.738 575.856 356.627 574.713Z" fill="white"/>
<circle id="g-thrm_1_ind" cx="386" cy="534" r="6" fill="#73FF19" stroke="black" stroke-width="2"/>
<rect x="601" y="761" width="78" height="78" rx="14" fill="#2F2D40" stroke="#1D1C26" stroke-width="2"/>
<path fill-rule="evenodd" clip-rule="evenodd" d="M635.005 775.994C635.005 773.236 637.241 771 640 771C642.758 771 644.994 773.236 644.994 775.994V812.656C644.994 812.982 645.155 813.284 645.41 813.487C647.413 815.079 648.7 817.538 648.7 820.3C648.7 825.105 644.805 829 640 829C635.195 829 631.3 825.105 631.3 820.3C631.3 817.538 632.587 815.079 634.589 813.487C634.844 813.284 635.005 812.982 635.005 812.656V775.994ZM636.627 814.713C636.956 814.514 637.18 814.169 637.18 813.785V775.994C637.18 774.437 638.443 773.175 640 773.175C641.557 773.175 642.819 774.437 642.819 775.994V777.975C642.819 778.527 642.372 778.975 641.819 778.975H641C640.448 778.975 640 779.423 640 779.975V780.15C640 780.702 640.448 781.15 641 781.15H641.819C642.372 781.15 642.819 781.598 642.819 782.15V783.775C642.819 784.327 642.372 784.775 641.819 784.775H641C640.448 784.775 640 785.223 640 785.775V785.95C640 786.502 640.448 786.95 641 786.95H641.819C642.372 786.95 642.819 787.398 642.819 787.95V789.575C642.819 790.127 642.372 790.575 641.819 790.575H641C640.448 790.575 640 791.023 640 791.575V791.75C640 792.302 640.448 792.75 641 792.75H641.819C642.372 792.75 642.819 793.198 642.819 793.75V795.375C642.819 795.927 642.372 796.375 641.819 796.375H641C640.448 796.375 640 796.823 640 797.375V797.55C640 798.102 640.448 798.55 641 798.55H641.819C642.372 798.55 642.819 798.998 642.819 799.55V801.175C642.819 801.727 642.372 802.175 641.819 802.175H641C640.448 802.175 640 802.623 640 803.175V803.35C640 803.902 640.448 804.35 641 804.35H641.819C642.372 804.35 642.819 804.798 642.819 805.35V806.975C642.819 807.527 642.372 807.975 641.819 807.975H641C640.448 807.975 640 808.423 640 808.975V809.15C640 809.702 640.448 810.15 641 810.15H641.819C642.372 810.15 642.819 810.598 642.819 811.15V813.785C642.819 814.169 643.044 814.514 643.373 814.713C645.262 815.856 646.525 817.931 646.525 820.3C646.525 823.904 643.603 826.825 640 826.825C636.396 826.825 633.475 823.904 633.475 820.3C633.475 817.931 634.738 815.856 636.627 814.713Z" fill="white"/>
<circle cx="666" cy="774" r="6" fill="#73FF19" stroke="black" stroke-width="2"/>
<rect x="601" y="881" width="78" height="78" rx="14" fill="#2F2D40" stroke="#1D1C26" stroke-width="2"/>
<path fill-rule="evenodd" clip-rule="evenodd" d="M640 930.5C644.418 930.5 648 926.918 648 922.5C648 918.082 644.418 914.5 640 914.5C635.581 914.5 632 918.082 632 922.5C632 926.918 635.581 930.5 640 930.5ZM640 932.5C645.523 932.5 650 928.023 650 922.5C650 916.977 645.523 912.5 640 912.5C634.477 912.5 630 916.977 630 922.5C630 928.023 634.477 932.5 640 932.5ZM636.961 918.237C636.218 918.039 635.539 918.718 635.737 919.461L636.725 923.165C636.893 923.797 637.684 924.01 638.147 923.547C638.479 923.215 639.018 923.215 639.35 923.547L642.399 926.596C642.79 926.987 643.423 926.987 643.813 926.596L644.096 926.314C644.487 925.923 644.487 925.29 644.096 924.899L641.047 921.85C640.715 921.518 640.715 920.979 641.047 920.647C641.51 920.184 641.297 919.394 640.664 919.225L636.961 918.237Z" fill="white"/>
<rect x="613.825" y="907.825" width="51.35" height="29.35" rx="10.175" stroke="white" stroke-width="3.65"/>
<circle cx="666" cy="894" r="6" fill="#73FF19" stroke="black" stroke-width="2"/>
<rect x="921" y="681" width="78" height="78" rx="14" fill="#38364D" stroke="#272633" stroke-width="2"/>
<path fill-rule="evenodd" clip-rule="evenodd" d="M940.479 707.809C939.813 707.445 939 707.927 939 708.687V731.313C939 732.073 939.813 732.555 940.479 732.191L959.52 721.779C959.819 721.616 960.18 721.616 960.479 721.779L979.52 732.191C980.186 732.555 981 732.073 981 731.313V708.687C981 707.927 980.186 707.445 979.52 707.809L960.479 718.221C960.18 718.384 959.819 718.384 959.52 718.221L940.479 707.809ZM966.694 719.123C966.001 719.502 966.001 720.498 966.694 720.877L975.558 725.724C976.224 726.089 977.037 725.606 977.037 724.847V715.153C977.037 714.394 976.224 713.911 975.558 714.276L966.694 719.123ZM953.305 720.877C953.999 720.498 953.999 719.502 953.305 719.123L944.442 714.276C943.775 713.911 942.962 714.394 942.962 715.153V724.847C942.962 725.606 943.775 726.089 944.442 725.724L953.305 720.877Z" fill="white"/>
<circle cx="986" cy="694" r="6" fill="#666666" stroke="black" stroke-width="2"/>
<rect x="1041" y="521" width="78" height="78" rx="14" fill="#38364D" stroke="#272633" stroke-width="2"/>
<path fill-rule="evenodd" clip-rule="evenodd" d="M1060.48 547.809C1059.81 547.445 1059 547.927 1059 548.687V571.313C1059 572.073 1059.81 572.555 1060.48 572.191L1079.52 561.779C1079.82 561.616 1080.18 561.616 1080.48 561.779L1099.52 572.191C1100.19 572.555 1101 572.073 1101 571.313V548.687C1101 547.927 1100.19 547.445 1099.52 547.809L1080.48 558.221C1080.18 558.384 1079.82 558.384 1079.52 558.221L1060.48 547.809ZM1086.69 559.123C1086 559.502 1086 560.498 1086.69 560.877L1095.56 565.724C1096.22 566.089 1097.04 565.606 1097.04 564.847V555.153C1097.04 554.394 1096.22 553.911 1095.56 554.276L1086.69 559.123ZM1073.3 560.877C1074 560.498 1074 559.502 1073.3 559.123L1064.44 554.276C1063.78 553.911 1062.96 554.394 1062.96 555.153V564.847C1062.96 565.606 1063.78 566.089 1064.44 565.724L1073.3 560.877Z" fill="white"/>
<circle cx="1106" cy="534" r="6" fill="#73FF19" stroke="black" stroke-width="2"/>
<rect x="1281" y="361" width="78" height="78" rx="14" fill="#38364D" stroke="#272633" stroke-width="2"/>
<path fill-rule="evenodd" clip-rule="evenodd" d="M1320 414.4C1327.95 414.4 1334.4 407.953 1334.4 400C1334.4 392.047 1327.95 385.6 1320 385.6C1312.05 385.6 1305.6 392.047 1305.6 400C1305.6 407.953 1312.05 414.4 1320 414.4ZM1320 418C1329.94 418 1338 409.941 1338 400C1338 390.059 1329.94 382 1320 382C1310.06 382 1302 390.059 1302 400C1302 409.941 1310.06 418 1320 418ZM1313.19 391.971C1312.45 391.773 1311.77 392.452 1311.97 393.195L1314.34 402.085C1314.54 402.829 1315.47 403.079 1316.01 402.535L1317.04 401.509C1317.43 401.119 1318.06 401.119 1318.45 401.509L1324.88 407.939C1325.27 408.33 1325.91 408.33 1326.3 407.939L1327.94 406.299C1328.33 405.908 1328.33 405.275 1327.94 404.885L1321.51 398.455C1321.12 398.064 1321.12 397.431 1321.51 397.04L1322.53 396.015C1323.08 395.471 1322.83 394.54 1322.08 394.342L1313.19 391.971Z" fill="white"/>
<circle cx="1346" cy="374" r="6" fill="#73FF19" stroke="black" stroke-width="2"/>
<rect x="921" y="361" width="78" height="78" rx="14" fill="#38364D" stroke="#272633" stroke-width="2"/>
<path fill-rule="evenodd" clip-rule="evenodd" d="M940.479 387.809C939.813 387.445 939 387.927 939 388.687V411.313C939 412.073 939.813 412.555 940.479 412.191L959.52 401.779C959.819 401.616 960.18 401.616 960.479 401.779L979.52 412.191C980.186 412.555 981 412.073 981 411.313V388.687C981 387.927 980.186 387.445 979.52 387.809L960.479 398.221C960.18 398.385 959.819 398.385 959.52 398.221L940.479 387.809ZM966.694 399.123C966.001 399.502 966.001 400.498 966.694 400.877L975.558 405.724C976.224 406.089 977.037 405.606 977.037 404.847V395.153C977.037 394.394 976.224 393.912 975.558 394.276L966.694 399.123ZM953.305 400.877C953.999 400.498 953.999 399.502 953.305 399.123L944.442 394.276C943.775 393.912 942.962 394.394 942.962 395.153V404.847C942.962 405.606 943.775 406.089 944.442 405.724L953.305 400.877Z" fill="white"/>
<circle cx="986" cy="374" r="6" fill="#666666" stroke="black" stroke-width="2"/>
<rect x="1161" y="445" width="78" height="34" rx="9" fill="#131219" stroke="#272633" stroke-width="2"/>
<text fill="white" xml:space="preserve" style="white-space: pre" font-family="Roboto Mono" font-size="14" font-weight="bold" letter-spacing="0em"><tspan x="1174.77" y="467.438">27,1&#xb0;C</tspan></text>
<rect x="1161" y="361" width="78" height="78" rx="14" fill="#38364D" stroke="#272633" stroke-width="2"/>
<path fill-rule="evenodd" clip-rule="evenodd" d="M1195.01 375.995C1195.01 373.236 1197.24 371 1200 371C1202.76 371 1204.99 373.236 1204.99 375.995V412.656C1204.99 412.982 1205.16 413.284 1205.41 413.487C1207.41 415.079 1208.7 417.538 1208.7 420.3C1208.7 425.105 1204.8 429 1200 429C1195.19 429 1191.3 425.105 1191.3 420.3C1191.3 417.538 1192.59 415.079 1194.59 413.487C1194.84 413.284 1195.01 412.982 1195.01 412.656V375.995ZM1196.63 414.713C1196.96 414.514 1197.18 414.169 1197.18 413.785V375.995C1197.18 374.437 1198.44 373.175 1200 373.175C1201.56 373.175 1202.82 374.437 1202.82 375.995V377.975C1202.82 378.527 1202.37 378.975 1201.82 378.975H1201C1200.45 378.975 1200 379.423 1200 379.975V380.15C1200 380.702 1200.45 381.15 1201 381.15H1201.82C1202.37 381.15 1202.82 381.598 1202.82 382.15V383.775C1202.82 384.327 1202.37 384.775 1201.82 384.775H1201C1200.45 384.775 1200 385.223 1200 385.775V385.95C1200 386.502 1200.45 386.95 1201 386.95H1201.82C1202.37 386.95 1202.82 387.398 1202.82 387.95V389.575C1202.82 390.127 1202.37 390.575 1201.82 390.575H1201C1200.45 390.575 1200 391.023 1200 391.575V391.75C1200 392.302 1200.45 392.75 1201 392.75H1201.82C1202.37 392.75 1202.82 393.198 1202.82 393.75V395.375C1202.82 395.927 1202.37 396.375 1201.82 396.375H1201C1200.45 396.375 1200 396.823 1200 397.375V397.55C1200 398.102 1200.45 398.55 1201 398.55H1201.82C1202.37 398.55 1202.82 398.998 1202.82 399.55V401.175C1202.82 401.727 1202.37 402.175 1201.82 402.175H1201C1200.45 402.175 1200 402.623 1200 403.175V403.35C1200 403.902 1200.45 404.35 1201 404.35H1201.82C1202.37 404.35 1202.82 404.798 1202.82 405.35V406.975C1202.82 407.527 1202.37 407.975 1201.82 407.975H1201C1200.45 407.975 1200 408.423 1200 408.975V409.15C1200 409.702 1200.45 410.15 1201 410.15H1201.82C1202.37 410.15 1202.82 410.598 1202.82 411.15V413.785C1202.82 414.169 1203.04 414.514 1203.37 414.713C1205.26 415.856 1206.52 417.931 1206.52 420.3C1206.52 423.904 1203.6 426.825 1200 426.825C1196.4 426.825 1193.47 423.904 1193.47 420.3C1193.47 417.931 1194.74 415.856 1196.63 414.713Z" fill="white"/>
<circle cx="1226" cy="374" r="6" fill="#73FF19" stroke="black" stroke-width="2"/>
<rect x="1161" y="681" width="78" height="78" rx="14" fill="#38364D" stroke="#272633" stroke-width="2"/>
<path fill-rule="evenodd" clip-rule="evenodd" d="M1212.06 722.188C1213.05 721.613 1214.25 722.375 1213.97 723.488C1212.42 729.756 1206.75 734.4 1200 734.4C1192.05 734.4 1185.6 727.953 1185.6 720C1185.6 712.047 1192.05 705.6 1200 705.6C1206.75 705.6 1212.42 710.244 1213.97 716.512C1214.25 717.625 1213.05 718.387 1212.06 717.812L1204.32 713.331C1203.36 712.776 1202.16 713.468 1202.16 714.578L1202.16 725.422C1202.16 726.532 1203.36 727.224 1204.32 726.669L1212.06 722.188ZM1218 720C1218 729.941 1209.94 738 1200 738C1190.06 738 1182 729.941 1182 720C1182 710.059 1190.06 702 1200 702C1209.94 702 1218 710.059 1218 720Z" fill="white"/>
<circle cx="1226" cy="694" r="6" fill="#73FF19" stroke="black" stroke-width="2"/>
<rect x="1281" y="681" width="78" height="78" rx="14" fill="#4B4866" stroke="#272633" stroke-width="2"/>
<path fill-rule="evenodd" clip-rule="evenodd" d="M1320 730.5C1324.42 730.5 1328 726.918 1328 722.5C1328 718.082 1324.42 714.5 1320 714.5C1315.58 714.5 1312 718.082 1312 722.5C1312 726.918 1315.58 730.5 1320 730.5ZM1320 732.5C1325.52 732.5 1330 728.023 1330 722.5C1330 716.977 1325.52 712.5 1320 712.5C1314.48 712.5 1310 716.977 1310 722.5C1310 728.023 1314.48 732.5 1320 732.5ZM1316.96 718.237C1316.22 718.039 1315.54 718.718 1315.74 719.461L1316.72 723.165C1316.89 723.797 1317.68 724.01 1318.15 723.547C1318.48 723.215 1319.02 723.215 1319.35 723.547L1322.4 726.596C1322.79 726.987 1323.42 726.987 1323.81 726.596L1324.1 726.314C1324.49 725.923 1324.49 725.29 1324.1 724.899L1321.05 721.85C1320.71 721.518 1320.71 720.979 1321.05 720.647C1321.51 720.184 1321.3 719.394 1320.66 719.225L1316.96 718.237Z" fill="white"/>
<rect x="1293.83" y="707.825" width="51.35" height="29.35" rx="10.175" stroke="white" stroke-width="3.65"/>
<circle cx="1346" cy="694" r="6" fill="#73FF19" stroke="black" stroke-width="2"/>
<rect x="1200" y="814" width="240" height="160" rx="10" fill="#4B4866"/>
<text fill="white" xml:space="preserve" style="white-space: pre" font-family="Inter" font-size="14" font-weight="600" letter-spacing="0em"><tspan x="1220" y="837.591">&#x413;&#x438;&#x434;&#x440;&#x43e;&#x430;&#x43a;&#x43a;&#x443;&#x43c;&#x443;&#x43b;&#x44f;&#x442;&#x43e;&#x440;</tspan></text>
<text fill="#8785A6" xml:space="preserve" style="white-space: pre" font-family="Inter" font-size="12" font-weight="500" letter-spacing="0em"><tspan x="1220" y="957.864">ID: g-rct_hydacm_2</tspan></text>
<text fill="white" xml:space="preserve" style="white-space: pre" font-family="Roboto Mono" font-size="20" font-weight="bold" letter-spacing="0em"><tspan x="1220" y="873.769">P</tspan></text>
<text fill="white" xml:space="preserve" style="white-space: pre" font-family="Roboto Mono" font-size="14" font-weight="bold" letter-spacing="0em"><tspan x="1327.05" y="874.269"> bar</tspan></text>
<text fill="white" xml:space="preserve" style="white-space: pre" font-family="Roboto Mono" font-size="20" font-weight="bold" letter-spacing="0em"><tspan x="1279" y="874.269">2.18</tspan></text>
<text fill="white" fill-opacity="0.7" xml:space="preserve" style="white-space: pre" font-family="Inter" font-size="12" font-weight="500" letter-spacing="0em"><tspan x="1232.01" y="901.769"> </tspan></text>
<text fill="white" fill-opacity="0.7" xml:space="preserve" style="white-space: pre" font-family="Roboto Mono" font-size="20" font-weight="bold" letter-spacing="0em"><tspan x="1220" y="901.769">P</tspan></text>
<text fill="white" fill-opacity="0.7" xml:space="preserve" style="white-space: pre" font-family="Roboto Mono" font-size="14" font-weight="bold" letter-spacing="0em"><tspan x="1235.19" y="901.769">max.</tspan></text>
<text fill="white" fill-opacity="0.7" xml:space="preserve" style="white-space: pre" font-family="Roboto Mono" font-size="14" font-weight="bold" letter-spacing="0em"><tspan x="1327.05" y="902.269"> bar</tspan></text>
<text fill="white" fill-opacity="0.7" xml:space="preserve" style="white-space: pre" font-family="Roboto Mono" font-size="20" font-weight="bold" letter-spacing="0em"><tspan x="1279" y="902.269">3.00</tspan></text>
<text fill="white" fill-opacity="0.7" xml:space="preserve" style="white-space: pre" font-family="Inter" font-size="12" font-weight="500" letter-spacing="0em"><tspan x="1232.01" y="929.769"> </tspan></text>
<text fill="white" fill-opacity="0.7" xml:space="preserve" style="white-space: pre" font-family="Roboto Mono" font-size="20" font-weight="bold" letter-spacing="0em"><tspan x="1220" y="929.769">P</tspan></text>
<text fill="white" fill-opacity="0.7" xml:space="preserve" style="white-space: pre" font-family="Roboto Mono" font-size="14" font-weight="bold" letter-spacing="0em"><tspan x="1235.19" y="929.769">min.</tspan></text>
<text fill="white" fill-opacity="0.7" xml:space="preserve" style="white-space: pre" font-family="Roboto Mono" font-size="14" font-weight="bold" letter-spacing="0em"><tspan x="1327.05" y="930.269"> bar</tspan></text>
<text fill="white" fill-opacity="0.7" xml:space="preserve" style="white-space: pre" font-family="Roboto Mono" font-size="20" font-weight="bold" letter-spacing="0em"><tspan x="1279" y="930.269">0.00</tspan></text>
<rect x="761" y="361" width="78" height="78" rx="14" fill="#2F2D40" stroke="#1D1C26" stroke-width="2"/>
<path fill-rule="evenodd" clip-rule="evenodd" d="M810.944 407.576C811.415 407.926 812.094 407.841 812.393 407.337C813.668 405.188 814.4 402.679 814.4 400C814.4 397.321 813.668 394.812 812.393 392.664C812.094 392.159 811.415 392.074 810.944 392.424C804.466 397.245 795.533 397.245 789.055 392.424C788.584 392.074 787.906 392.159 787.606 392.664C786.331 394.812 785.6 397.321 785.6 400C785.6 402.679 786.331 405.188 787.606 407.337C787.906 407.841 788.584 407.926 789.055 407.576C795.533 402.755 804.466 402.755 810.944 407.576ZM808.451 411.661C808.953 411.296 808.945 410.561 808.437 410.206C803.384 406.678 796.616 406.678 791.563 410.206C791.054 410.561 791.047 411.296 791.548 411.661C793.922 413.384 796.842 414.4 800 414.4C803.157 414.4 806.077 413.384 808.451 411.661ZM800 385.6C803.157 385.6 806.077 386.616 808.451 388.34C808.953 388.704 808.945 389.439 808.437 389.794C803.384 393.322 796.616 393.322 791.563 389.794C791.054 389.439 791.047 388.704 791.548 388.34C793.922 386.616 796.842 385.6 800 385.6ZM800 418C809.941 418 818 409.941 818 400C818 390.059 809.941 382 800 382C790.059 382 782 390.059 782 400C782 409.941 790.059 418 800 418Z" fill="white"/>
<circle cx="826" cy="374" r="6" fill="#666666" stroke="black" stroke-width="2"/>
<rect x="321" y="641" width="78" height="78" rx="14" fill="#2F2D40" stroke="#1D1C26" stroke-width="2"/>
<g clip-path="url(#clip0)">
<path fill-rule="evenodd" clip-rule="evenodd" d="M359.278 677.171C358.881 677.171 358.559 676.842 358.559 676.436L358.559 670.548C358.559 669.892 359.335 669.564 359.787 670.029L368.389 678.861C368.841 679.324 368.52 680.115 367.88 680.115L362.862 680.115C362.465 680.115 362.143 679.786 362.143 679.38L362.143 677.907C362.143 677.501 361.821 677.171 361.423 677.171L359.278 677.171ZM362.143 683.059C362.143 682.653 362.465 682.323 362.862 682.323L367.88 682.323C368.52 682.323 368.841 683.114 368.389 683.578L359.787 692.41C359.335 692.875 358.559 692.547 358.559 691.891L358.559 686.003C358.559 685.597 358.881 685.268 359.278 685.268L361.423 685.268C361.821 685.268 362.143 684.938 362.143 684.532L362.143 683.059ZM356.316 702.854C356.376 702.744 356.408 702.62 356.408 702.495L356.408 699.188C356.408 698.993 356.333 698.806 356.198 698.668L354.945 697.382L341.742 683.825L339.71 681.739C339.43 681.452 339.43 680.987 339.71 680.7L341.742 678.613L354.945 665.057L356.198 663.77C356.333 663.633 356.408 663.446 356.408 663.251L356.408 660.243C356.408 659.836 356.086 659.507 355.689 659.507L352.259 659.507C351.71 659.507 351.363 658.902 351.632 658.412L356.856 648.876C357.131 648.375 357.836 648.375 358.111 648.876L363.335 658.412C363.604 658.902 363.257 659.507 362.707 659.507L359.278 659.507C358.881 659.507 358.559 659.836 358.559 660.243L358.559 663.251C358.559 663.446 358.634 663.633 358.768 663.77L360.021 665.057L373.225 678.613L373.517 678.913C373.969 679.378 374.745 679.05 374.745 678.394L374.745 676.454C374.745 676.048 375.068 675.718 375.465 675.718L379.781 675.718C380.178 675.718 380.5 676.048 380.5 676.454L380.5 686.017C380.5 686.424 380.178 686.753 379.781 686.753L375.465 686.753C375.068 686.753 374.745 686.424 374.745 686.017L374.745 684.045C374.745 683.389 373.969 683.061 373.517 683.526L373.225 683.825L360.021 697.382L358.768 698.668C358.634 698.806 358.559 698.993 358.559 699.188L358.559 702.494C358.559 702.62 358.59 702.744 358.65 702.854L363.335 711.405C363.604 711.895 363.257 712.5 362.707 712.5L352.259 712.5C351.71 712.5 351.363 711.895 351.632 711.405L356.316 702.854ZM355.689 685.268C356.086 685.268 356.408 685.597 356.408 686.003L356.408 691.891C356.408 692.547 355.632 692.875 355.179 692.41L346.577 683.578C346.126 683.114 346.447 682.323 347.087 682.323L352.105 682.323C352.502 682.323 352.824 682.653 352.824 683.059L352.824 684.532C352.824 684.938 353.146 685.268 353.543 685.268L355.689 685.268ZM352.824 679.38C352.824 679.786 352.502 680.115 352.105 680.115L347.087 680.115C346.447 680.115 346.126 679.324 346.577 678.861L355.179 670.029C355.632 669.564 356.408 669.892 356.408 670.548L356.408 676.436C356.408 676.842 356.086 677.171 355.689 677.171L353.543 677.171C353.146 677.171 352.824 677.501 352.824 677.907L352.824 679.38Z" fill="white"/>
</g>
<circle id="g-heat_el_2_ind"  cx="386" cy="654" r="6" fill="#73FF19" stroke="black" stroke-width="2"/>
<rect x="321" y="761" width="78" height="78" rx="14" fill="#2F2D40" stroke="#1D1C26" stroke-width="2"/>
<path fill-rule="evenodd" clip-rule="evenodd" d="M372.061 802.188C373.054 801.613 374.251 802.375 373.974 803.488C372.415 809.756 366.75 814.4 360 814.4C352.047 814.4 345.6 807.953 345.6 800C345.6 792.047 352.047 785.6 360 785.6C366.75 785.6 372.415 790.244 373.974 796.512C374.251 797.625 373.054 798.387 372.061 797.812L364.321 793.331C363.361 792.776 362.16 793.468 362.16 794.578L362.16 805.422C362.16 806.532 363.361 807.224 364.321 806.669L372.061 802.188ZM378 800C378 809.941 369.941 818 360 818C350.059 818 342 809.941 342 800C342 790.059 350.059 782 360 782C369.941 782 378 790.059 378 800Z" fill="white"/>
<circle  id="g-pump_1_ind"  cx="386" cy="774" r="6" fill="#73FF19" stroke="black" stroke-width="2"/>
<rect x="321" y="881" width="78" height="78" rx="14" fill="#2F2D40" stroke="#1D1C26" stroke-width="2"/>
<path fill-rule="evenodd" clip-rule="evenodd" d="M360 934.4C367.953 934.4 374.4 927.953 374.4 920C374.4 912.047 367.953 905.6 360 905.6C352.047 905.6 345.6 912.047 345.6 920C345.6 927.953 352.047 934.4 360 934.4ZM360 938C369.941 938 378 929.941 378 920C378 910.059 369.941 902 360 902C350.059 902 342 910.059 342 920C342 929.941 350.059 938 360 938ZM353.195 911.971C352.452 911.773 351.773 912.452 351.971 913.195L354.342 922.085C354.54 922.829 355.47 923.079 356.015 922.534L357.04 921.509C357.431 921.119 358.064 921.119 358.455 921.509L364.885 927.939C365.275 928.33 365.908 928.33 366.299 927.939L367.939 926.299C368.33 925.908 368.33 925.275 367.939 924.885L361.509 918.455C361.119 918.064 361.119 917.431 361.509 917.04L362.534 916.015C363.079 915.47 362.829 914.54 362.085 914.342L353.195 911.971Z" fill="white"/>
<circle id="g-pres_1_ind" cx="386" cy="894" r="6" fill="#73FF19" stroke="black" stroke-width="2"/>
<rect x="321" y="201" width="78" height="78" rx="14" fill="#2F2D40" stroke="#1D1C26" stroke-width="2"/>
<path fill-rule="evenodd" clip-rule="evenodd" d="M355.005 215.994C355.005 213.236 357.242 211 360 211C362.758 211 364.994 213.236 364.994 215.994V252.656C364.994 252.982 365.156 253.284 365.41 253.487C367.413 255.079 368.7 257.538 368.7 260.3C368.7 265.105 364.805 269 360 269C355.195 269 351.3 265.105 351.3 260.3C351.3 257.538 352.587 255.079 354.589 253.487C354.844 253.284 355.005 252.982 355.005 252.656V215.994ZM356.627 254.713C356.956 254.514 357.18 254.169 357.18 253.785V215.994C357.18 214.437 358.443 213.175 360 213.175C361.557 213.175 362.819 214.437 362.819 215.994V217.975C362.819 218.527 362.372 218.975 361.819 218.975H361C360.448 218.975 360 219.423 360 219.975V220.15C360 220.702 360.448 221.15 361 221.15H361.819C362.372 221.15 362.819 221.598 362.819 222.15V223.775C362.819 224.327 362.372 224.775 361.819 224.775H361C360.448 224.775 360 225.223 360 225.775V225.95C360 226.502 360.448 226.95 361 226.95H361.819C362.372 226.95 362.819 227.398 362.819 227.95V229.575C362.819 230.127 362.372 230.575 361.819 230.575H361C360.448 230.575 360 231.023 360 231.575V231.75C360 232.302 360.448 232.75 361 232.75H361.819C362.372 232.75 362.819 233.198 362.819 233.75V235.375C362.819 235.927 362.372 236.375 361.819 236.375H361C360.448 236.375 360 236.823 360 237.375V237.55C360 238.102 360.448 238.55 361 238.55H361.819C362.372 238.55 362.819 238.998 362.819 239.55V241.175C362.819 241.727 362.372 242.175 361.819 242.175H361C360.448 242.175 360 242.623 360 243.175V243.35C360 243.902 360.448 244.35 361 244.35H361.819C362.372 244.35 362.819 244.798 362.819 245.35V246.975C362.819 247.527 362.372 247.975 361.819 247.975H361C360.448 247.975 360 248.423 360 248.975V249.15C360 249.702 360.448 250.15 361 250.15H361.819C362.372 250.15 362.819 250.598 362.819 251.15V253.785C362.819 254.169 363.044 254.514 363.373 254.713C365.262 255.856 366.525 257.931 366.525 260.3C366.525 263.904 363.604 266.825 360 266.825C356.396 266.825 353.475 263.904 353.475 260.3C353.475 257.931 354.738 255.856 356.627 254.713Z" fill="white"/>
<a href="/frames/1">
<circle id="g-thrm_2_ind" cx="386" cy="214" r="6" fill="#73FF19" stroke="black" stroke-width="2"/>
</a>
<rect x="601" y="441" width="118" height="238" rx="14" fill="#2F2D40" stroke="#1E1D27" stroke-width="2"/>
<path d="M649.166 482.364C647.97 481.192 647.97 479.293 649.166 478.121C650.363 476.95 652.303 476.95 653.5 478.121L670.833 495.091C672.03 496.263 672.03 498.162 670.833 499.333C669.636 500.505 667.696 500.505 666.5 499.333L649.166 482.364Z" fill="white"/>
<path d="M649.166 498.091C647.97 496.919 647.97 495.02 649.166 493.848C650.363 492.677 652.303 492.677 653.5 493.848L670.833 510.818C672.03 511.99 672.03 513.889 670.833 515.061C669.636 516.232 667.696 516.232 666.5 515.061L649.166 498.091Z" fill="white"/>
<path d="M649.166 513.818C647.97 512.647 647.97 510.747 649.166 509.576C650.363 508.404 652.303 508.404 653.5 509.576L670.833 526.546C672.03 527.717 672.03 529.616 670.833 530.788C669.636 531.96 667.696 531.96 666.5 530.788L649.166 513.818Z" fill="white"/>
<path d="M649.166 529.545C647.97 528.374 647.97 526.474 649.166 525.303C650.363 524.131 652.303 524.131 653.5 525.303L670.833 542.273C672.03 543.444 672.03 545.344 670.833 546.515C669.636 547.687 667.696 547.687 666.5 546.515L649.166 529.545Z" fill="white"/>
<path d="M649.166 545.273C647.97 544.101 647.97 542.202 649.166 541.03C650.363 539.859 652.303 539.859 653.5 541.03L670.833 558C672.03 559.172 672.03 561.071 670.833 562.242C669.636 563.414 667.696 563.414 666.5 562.242L649.166 545.273Z" fill="white"/>
<path d="M649.166 561C647.97 559.828 647.97 557.929 649.166 556.757C650.363 555.586 652.303 555.586 653.5 556.757L670.833 573.727C672.03 574.899 672.03 576.798 670.833 577.97C669.636 579.141 667.696 579.141 666.5 577.97L649.166 561Z" fill="white"/>
<path d="M649.166 576.727C647.97 575.556 647.97 573.656 649.166 572.485C650.363 571.313 652.303 571.313 653.5 572.485L670.833 589.455C672.03 590.626 672.03 592.525 670.833 593.697C669.636 594.869 667.696 594.869 666.5 593.697L649.166 576.727Z" fill="white"/>
<path d="M649.166 592.454C647.97 591.283 647.97 589.383 649.166 588.212C650.363 587.04 652.303 587.04 653.5 588.212L670.833 605.182C672.03 606.353 672.03 608.253 670.833 609.424C669.636 610.596 667.696 610.596 666.5 609.424L649.166 592.454Z" fill="white"/>
<path d="M649.166 608.182C647.97 607.01 647.97 605.111 649.166 603.939C650.363 602.768 652.303 602.768 653.5 603.939L670.833 620.909C672.03 622.081 672.03 623.98 670.833 625.151C669.636 626.323 667.696 626.323 666.5 625.151L649.166 608.182Z" fill="white"/>
<path d="M649.166 623.909C647.97 622.737 647.97 620.838 649.166 619.666C650.363 618.495 652.303 618.495 653.5 619.666L670.833 636.636C672.03 637.808 672.03 639.707 670.833 640.879C669.636 642.05 667.696 642.05 666.5 640.879L649.166 623.909Z" fill="white"/>
<path d="M640 442V678" stroke="#469116" stroke-width="4"/>
<path d="M680 442V678" stroke="#167B91" stroke-width="4"/>
<rect x="1441" y="441" width="118" height="238" rx="14" fill="#38364D" stroke="#272633" stroke-width="2"/>
<path d="M1480 442V678" stroke="#167B91" stroke-width="4"/>
<rect x="1490" y="477" width="30" height="6.30023" rx="3" fill="white"/>
<rect x="1490" y="488.481" width="30" height="6.30023" rx="3" fill="white"/>
<rect x="1490" y="499.963" width="30" height="6.30023" rx="3" fill="white"/>
<rect x="1490" y="511.444" width="30" height="6.30023" rx="3" fill="white"/>
<rect x="1490" y="522.925" width="30" height="6.30023" rx="3" fill="white"/>
<rect x="1490" y="545.888" width="30" height="6.30023" rx="3" fill="white"/>
<rect x="1490" y="534.406" width="30" height="6.30022" rx="3" fill="white"/>
<rect x="1490" y="557.369" width="30" height="6.30022" rx="3" fill="white"/>
<rect x="1490" y="568.85" width="30" height="6.30023" rx="3" fill="white"/>
<rect x="1490" y="580.331" width="30" height="6.30023" rx="3" fill="white"/>
<rect x="1490" y="591.812" width="30" height="6.30023" rx="3" fill="white"/>
<rect x="1490" y="603.294" width="30" height="6.30022" rx="3" fill="white"/>
<rect x="1490" y="614.775" width="30" height="6.30023" rx="3" fill="white"/>
<rect x="1490" y="626.256" width="30" height="6.30023" rx="3" fill="white"/>
<rect x="1490" y="637.738" width="30" height="6.30022" rx="3" fill="white"/>
<path d="M507.295 162.629C509.368 161.489 509.368 158.511 507.295 157.371L493.446 149.754C491.446 148.654 489 150.101 489 152.383L489 167.617C489 169.899 491.446 171.346 493.446 170.246L507.295 162.629Z" fill="#6EFF0E" stroke="#1D1C26" stroke-width="2"/>
<path d="M712.704 402.629C710.632 401.489 710.632 398.511 712.704 397.371L726.554 389.754C728.553 388.654 731 390.101 731 392.383L731 407.617C731 409.899 728.553 411.346 726.554 410.246L712.704 402.629Z" fill="#0ED3FF" stroke="#1D1C26" stroke-width="2"/>
<path d="M727.295 722.629C729.368 721.489 729.368 718.511 727.295 717.371L713.446 709.754C711.446 708.654 709 710.101 709 712.383L709 727.617C709 729.899 711.446 731.346 713.446 730.246L727.295 722.629Z" fill="#0ED3FF" stroke="#1D1C26" stroke-width="2"/>
<path d="M1447.3 722.629C1449.37 721.489 1449.37 718.511 1447.3 717.371L1433.45 709.754C1431.45 708.654 1429 710.101 1429 712.383L1429 727.617C1429 729.899 1431.45 731.346 1433.45 730.246L1447.3 722.629Z" fill="#0ED3FF" stroke="#272633" stroke-width="2"/>
<path d="M1077.37 647.296C1078.51 649.368 1081.49 649.368 1082.63 647.296L1090.25 633.446C1091.35 631.446 1089.9 629 1087.62 629L1072.38 629C1070.1 629 1068.65 631.446 1069.75 633.446L1077.37 647.296Z" fill="#0ED3FF" stroke="#272633" stroke-width="2"/>
<path d="M1077.37 487.296C1078.51 489.368 1081.49 489.368 1082.63 487.296L1090.25 473.446C1091.35 471.446 1089.9 469 1087.62 469L1072.38 469C1070.1 469 1068.65 471.446 1069.75 473.446L1077.37 487.296Z" fill="#0ED3FF" stroke="#272633" stroke-width="2"/>
<path d="M1432.7 402.629C1430.63 401.489 1430.63 398.511 1432.7 397.371L1446.55 389.754C1448.55 388.654 1451 390.101 1451 392.383L1451 407.617C1451 409.899 1448.55 411.346 1446.55 410.246L1432.7 402.629Z" fill="#0ED3FF" stroke="#272633" stroke-width="2"/>
<path d="M492.704 1002.63C490.632 1001.49 490.632 998.511 492.704 997.371L506.554 989.754C508.553 988.654 511 990.101 511 992.383L511 1007.62C511 1009.9 508.553 1011.35 506.554 1010.25L492.704 1002.63Z" fill="#6EFF0E" stroke="#1D1C26" stroke-width="2"/>
<rect y="1040" width="1920" height="40" fill="#272633"/>
<rect x="1784" y="1045" width="131" height="30" rx="4" fill="#1E1D27"/>
<text fill="#C5C3D9" xml:space="preserve" style="white-space: pre" font-family="Inter" font-size="18" font-weight="600" letter-spacing="0em"><tspan x="1800.34" y="1066.55">03 : 04 : 37</tspan></text>
<rect x="5" y="1045" width="30" height="30" rx="4" fill="#3B394D"/>
<path d="M13 1069H11V1068C11.0044 1064.14 14.1358 1061 18 1061H22C25.8642 1061 28.9956 1064.14 29 1068V1069H27V1068C26.9967 1065.24 24.7601 1063 22 1063H18C15.2399 1063 13.0033 1065.24 13 1068V1069ZM20 1060C17.2386 1060 15 1057.76 15 1055C15 1052.24 17.2386 1050 20 1050C22.7614 1050 25 1052.24 25 1055C24.9967 1057.76 22.7601 1060 20 1060ZM20 1052C18.3431 1052 17 1053.34 17 1055C17 1056.66 18.3431 1058 20 1058C21.6569 1058 23 1056.66 23 1055C23 1053.34 21.6569 1052 20 1052Z" fill="white"/>
<rect width="1920" height="40" fill="black"/>
<path d="M40 15C40 9.47715 44.4772 5 50 5H270C275.523 5 280 9.47715 280 15V40H40V15Z" fill="#1E1D27"/>
<text transform="translate(60 13)" fill="#C5C3D9" xml:space="preserve" style="white-space: pre" font-family="Inter" font-size="16" font-weight="500" letter-spacing="0em"><tspan x="27.2188" y="16.3182">&#x41e;&#x431;&#x43e;&#x433;&#x440;&#x435;&#x432; &#x440;&#x435;&#x430;&#x43a;&#x442;&#x43e;&#x440;&#x430;</tspan></text>
<path d="M285 15C285 9.47715 289.477 5 295 5H515C520.523 5 525 9.47715 525 15V40H285V15Z" fill="#121117"/>
<text transform="translate(305 13)" fill="#9795A6" xml:space="preserve" style="white-space: pre" font-family="Inter" font-size="16" font-weight="500" letter-spacing="0em"><tspan x="52.7578" y="16.3182">&#x412;&#x435;&#x43d;&#x442;&#x438;&#x43b;&#x44f;&#x446;&#x438;&#x44f;</tspan></text>
<path d="M530 15C530 9.47715 534.477 5 540 5H760C765.523 5 770 9.47715 770 15V40H530V15Z" fill="#121117"/>
<text transform="translate(550 13)" fill="#9795A6" xml:space="preserve" style="white-space: pre" font-family="Inter" font-size="16" font-weight="500" letter-spacing="0em"><tspan x="54.0938" y="16.3182">&#x41e;&#x441;&#x432;&#x435;&#x449;&#x435;&#x43d;&#x438;&#x435;</tspan></text>
<path d="M775 15C775 9.47715 779.477 5 785 5H1005C1010.52 5 1015 9.47715 1015 15V40H775V15Z" fill="#121117"/>
<text transform="translate(795 13)" fill="#9795A6" xml:space="preserve" style="white-space: pre" font-family="Inter" font-size="16" font-weight="500" letter-spacing="0em"><tspan x="47.7266" y="16.3182">&#x422;&#x435;&#x43c;&#x43f;&#x435;&#x440;&#x430;&#x442;&#x443;&#x440;&#x430;</tspan></text>
<path d="M1020 15C1020 9.47715 1024.48 5 1030 5H1250C1255.52 5 1260 9.47715 1260 15V40H1020V15Z" fill="#121117"/>
<text transform="translate(1040 13)" fill="#9795A6" xml:space="preserve" style="white-space: pre" font-family="Inter" font-size="16" font-weight="500" letter-spacing="0em"><tspan x="55.8828" y="16.3182">&#x412;&#x43b;&#x430;&#x436;&#x43d;&#x43e;&#x441;&#x442;&#x44c;</tspan></text>
<path d="M1265 15C1265 9.47715 1269.48 5 1275 5H1495C1500.52 5 1505 9.47715 1505 15V40H1265V15Z" fill="#121117"/>
<text transform="translate(1285 13)" fill="#9795A6" xml:space="preserve" style="white-space: pre" font-family="Inter" font-size="16" font-weight="500" letter-spacing="0em"><tspan x="75.1875" y="16.3182">&#x41f;&#x43e;&#x43b;&#x438;&#x432;</tspan></text>
<text transform="translate(854 1047)" fill="white" xml:space="preserve" style="white-space: pre" font-family="Inter" font-size="20" font-weight="600" letter-spacing="0em"><tspan x="163.125" y="20.2727"> &#x418;&#x422;&#x41f;</tspan></text>
<text transform="translate(854 1047)" fill="#B0ADCC" xml:space="preserve" style="white-space: pre" font-family="Inter" font-size="20" font-weight="600" letter-spacing="0em"><tspan x="0" y="20.2727">&#x41e;&#x431;&#x437;&#x43e;&#x440;&#x43d;&#x430;&#x44f; &#x441;&#x445;&#x435;&#x43c;&#x430;</tspan></text>
<g clip-path="url(#clip1)">
<path d="M1905 77.0895V92.7796C1905 92.9338 1904.86 93.0687 1904.71 93.0687H1902.35C1902.2 93.0687 1902.06 92.9338 1902.06 92.7796V77.0895C1902.06 76.9353 1902.2 76.8004 1902.35 76.8004H1904.71C1904.86 76.8004 1905 76.9353 1905 77.0895Z" fill="#454259"/>
<path d="M1890.2 81.1566V82.4481C1891.14 81.0988 1892.52 80.4627 1894.16 80.4627C1895.94 80.4627 1897.33 81.041 1898.58 82.4481C1899.71 83.6046 1900.29 85.243 1900.29 86.9585C1900.29 90.4088 1897.73 93.4543 1894.16 93.4543C1892.61 93.4543 1891.43 92.9531 1890.43 91.7388V96.8467C1890.43 97.0009 1890.29 97.1359 1890.14 97.1359H1887.78C1887.63 97.1359 1887.49 97.0009 1887.49 96.8467V81.1566C1887.49 81.0024 1887.63 80.8675 1887.78 80.8675H1889.91C1890.08 80.8675 1890.2 81.0024 1890.2 81.1566ZM1891.42 89.6763C1892.03 90.2353 1892.94 90.6015 1893.75 90.6015C1895.82 90.6015 1897.37 89.0017 1897.37 86.9585C1897.37 85.031 1895.84 83.354 1893.87 83.354C1891.82 83.354 1890.28 84.9539 1890.28 86.9778C1890.28 88.0186 1890.62 88.9631 1891.42 89.6763Z" fill="#454259"/>
<path d="M1877 81.1566V81.9855C1877.77 80.9831 1879.09 80.4627 1880.38 80.4627C1881.66 80.4627 1882.99 81.041 1883.86 81.9855C1883.98 82.1011 1884.07 82.1975 1884.17 82.3324C1885.12 83.6431 1885.14 85.1659 1885.14 86.7272V92.7796C1885.14 92.9338 1885 93.0688 1884.85 93.0688H1882.49C1882.33 93.0688 1882.2 92.9338 1882.2 92.7796V87.3247C1882.2 86.3802 1882.2 85.1659 1881.7 84.3563C1881.27 83.7202 1880.5 83.354 1879.76 83.354C1878.97 83.354 1878.1 83.7781 1877.71 84.4334C1877.19 85.2623 1877.23 86.5923 1877.23 87.556V92.7796C1877.23 92.9338 1877.1 93.0688 1876.94 93.0688H1874.58C1874.43 93.0688 1874.29 92.9338 1874.29 92.7796V81.1566C1874.29 81.0024 1874.43 80.8675 1874.58 80.8675H1876.73C1876.86 80.8675 1877 81.0024 1877 81.1566Z" fill="#454259"/>
<path d="M1851.86 90.6015C1852.9 90.6015 1853.93 90.216 1854.51 89.6378C1854.57 89.5799 1854.64 89.5414 1854.72 89.5414H1857.43C1857.64 89.5414 1857.77 89.7534 1857.7 89.9462C1856.79 91.9315 1854.41 93.4543 1852 93.4543C1848.44 93.4543 1845.56 90.6015 1845.56 87.0549C1845.56 83.4504 1848.38 80.482 1852.03 80.482C1855.51 80.482 1858.29 83.4697 1858.29 86.8814C1858.29 87.2669 1858.24 87.6524 1858.18 88.0186C1858.16 88.1536 1858.04 88.2499 1857.89 88.2499H1848.65C1849.1 89.6763 1850.39 90.6015 1851.86 90.6015ZM1852 83.3347C1850.55 83.3347 1849.04 84.26 1848.59 85.6671H1855.32C1854.84 84.2214 1853.5 83.3347 1852 83.3347Z" fill="#454259"/>
<path d="M1865.99 90.6015C1867.03 90.6015 1868.05 90.216 1868.63 89.6378C1868.69 89.5799 1868.77 89.5414 1868.85 89.5414H1871.55C1871.76 89.5414 1871.9 89.7534 1871.82 89.9462C1870.91 91.9315 1868.54 93.4543 1866.12 93.4543C1862.57 93.4543 1859.69 90.6015 1859.69 87.0549C1859.69 83.4504 1862.51 80.482 1866.16 80.482C1869.64 80.482 1872.42 83.4697 1872.42 86.8814C1872.42 87.2669 1872.36 87.6524 1872.3 88.0186C1872.29 88.1536 1872.17 88.2499 1872.01 88.2499H1862.78C1863.2 89.6763 1864.5 90.6015 1865.99 90.6015ZM1866.1 83.3347C1864.65 83.3347 1863.14 84.26 1862.7 85.6671H1869.43C1868.96 84.2214 1867.61 83.3347 1866.1 83.3347Z" fill="#454259"/>
<path d="M1844.48 80.482C1843.3 80.5013 1842.55 80.9639 1841.87 81.9855V81.1759C1841.87 81.0217 1841.73 80.8868 1841.58 80.8868H1839.47C1839.32 80.8868 1839.18 81.0217 1839.18 81.1759V92.7796C1839.18 92.9338 1839.32 93.0688 1839.47 93.0688H1841.83C1841.99 93.0688 1842.12 92.9338 1842.12 92.7796V86.4959C1842.1 85.4936 1842.12 84.5876 1842.95 83.8937C1843.38 83.566 1843.96 83.3733 1844.48 83.3347C1844.63 83.3155 1844.73 83.1998 1844.73 83.0456V80.7519C1844.75 80.6169 1844.63 80.482 1844.48 80.482Z" fill="#454259"/>
<path d="M1836.92 91.2183C1836.92 93.1073 1836.52 94.5337 1835.2 95.9215C1833.95 97.213 1832.19 98.0033 1830.35 98.0033C1827.92 98.0033 1825.48 96.6154 1824.46 94.3795C1824.38 94.1867 1824.52 93.9747 1824.71 93.9747H1827.49C1827.57 93.9747 1827.65 94.0133 1827.69 94.0518C1828.36 94.7072 1829.43 95.1312 1830.33 95.1312C1831.3 95.1312 1832.36 94.7843 1833.06 94.1289C1833.95 93.3194 1834.04 92.4712 1834.22 91.3533C1833.21 92.6062 1831.94 93.435 1830.28 93.435C1828.73 93.435 1826.97 92.6254 1825.91 91.5267C1824.69 90.2739 1824.07 88.5198 1824.07 86.785C1824.07 85.1852 1824.69 83.6817 1825.7 82.5445C1826.84 81.2916 1828.5 80.482 1830.33 80.482C1831.92 80.482 1833.43 81.1374 1834.2 82.5445V81.1566C1834.2 81.0024 1834.33 80.8675 1834.49 80.8675H1836.61C1836.77 80.8675 1836.9 81.0024 1836.9 81.1566L1836.92 91.2183ZM1828.01 84.4142C1827.34 85.1273 1827.05 85.9369 1827.05 86.9007C1827.05 89.021 1828.61 90.6015 1830.74 90.6015C1832.67 90.6015 1834.18 88.886 1834.18 87.0163C1834.18 84.9346 1832.59 83.3347 1830.53 83.3347C1829.56 83.3347 1828.65 83.7588 1828.01 84.4142Z" fill="#454259"/>
<path d="M1830.37 60.5898L1829.15 59.3755C1828.38 58.6045 1827.14 58.6045 1826.39 59.3755L1813.58 72.155C1812.81 72.926 1812.81 74.1597 1813.58 74.9114L1818.78 80.0965C1819.55 80.8675 1820.79 80.8675 1821.54 80.0965L1826.57 75.0849C1827.34 74.3139 1827.34 73.0802 1826.57 72.3285L1825.35 71.1142C1824.57 70.3432 1824.57 69.1095 1825.35 68.3578L1830.37 63.3462C1831.14 62.5752 1831.14 61.3416 1830.37 60.5898Z" fill="#454259"/>
<path d="M1847.24 60.7633L1842.04 55.5783C1841.27 54.8072 1840.03 54.8072 1839.28 55.5783L1834.26 60.5898C1833.48 61.3609 1833.48 62.5945 1834.26 63.3462L1835.47 64.5606C1836.25 65.3316 1836.25 66.5652 1835.47 67.3169L1830.45 72.3285C1829.68 73.0995 1829.68 74.3331 1830.45 75.0849L1831.67 76.2992C1832.44 77.0702 1833.68 77.0702 1834.43 76.2992L1847.24 63.5197C1848 62.7679 1848 61.5151 1847.24 60.7633Z" fill="#454259"/>
</g>
<defs>
<clipPath id="clip0">
<rect width="80" height="80" fill="white" transform="translate(320 640)"/>
</clipPath>
<clipPath id="clip1">
<rect width="92" height="43.0032" fill="white" transform="translate(1813 55)"/>
</clipPath>
</defs>
</svg>
